<?xml version="1.0" standalone="no"?><!DOCTYPE svg PUBLIC "-//W3C//DTD SVG 1.1//EN" "http://www.w3.org/Graphics/SVG/1.1/DTD/svg11.dtd"><svg t="1769311529318" class="icon" viewBox="0 0 1024 1024" version="1.1" xmlns="http://www.w3.org/2000/svg" p-id="1612" xmlns:xlink="http://www.w3.org/1999/xlink" width="256" height="256"><path d="M148.0192 147.5584m137.0624 0l446.5152 0q137.0624 0 137.0624 137.0624l0 446.5152q0 137.0624-137.0624 137.0624l-446.5152 0q-137.0624 0-137.0624-137.0624l0-446.5152q0-137.0624 137.0624-137.0624Z" fill="#C9C9F4" p-id="1613"></path><path d="M662.9376 151.2448s109.2096 31.6928 109.2096 107.52v496.384c0 36.1984-3.6352 100.6592-78.0288 114.2272 73.216 0 184.832-15.8208 184.832-163.84V255.2832c0-52.0192-74.3936-132.4032-216.0128-104.0384z" fill="#B2B2EA" p-id="1614"></path><path d="M355.3792 151.2448s-109.2096 31.6928-109.2096 107.52v496.384c0 36.1984 3.584 100.6592 77.9776 114.2272-73.1648 0-184.7808-15.8208-184.7808-163.84V255.2832c0-52.0192 74.3936-132.4032 216.0128-104.0384z" fill="#E6E6FF" p-id="1615"></path><path d="M353.28 147.8656S243.4048 151.2448 243.4048 271.36s3.584 456.0896 3.584 483.9424-3.0208 110.848 91.5968 121.0368l65.024-8.2944s-97.28-6.8096-97.28-123.648V288.1024c0-70.8608 33.4848-114.5856 89.6-136.8576-19.6096-12.3904-42.6496-3.3792-42.6496-3.3792z" fill="#F3F3FF" p-id="1616"></path><path d="M590.336 431.4112h-163.84A85.8112 85.8112 0 0 1 340.48 345.6V138.8544h335.6672V345.6a85.8112 85.8112 0 0 1-85.8112 85.8112z" fill="#FFD16C" p-id="1617"></path><path d="M601.8048 154.112v192.768c0 13.0048 1.2288 62.7712-47.4112 72.96 56.6272 9.6256 124.928-27.6992 124.928-80.8448V151.2448z" fill="#FFC50B" p-id="1618"></path><path d="M414.1056 154.112v192.768c0 13.0048-1.1776 62.7712 47.0016 72.96-56.32 9.6256-123.8528-27.6992-123.8528-80.8448V151.2448z" fill="#FFE8C0" p-id="1619"></path><path d="M740.352 113.2544H276.48a162.816 162.816 0 0 0-162.816 162.6624v464.0256A162.8672 162.8672 0 0 0 276.48 902.6048h463.872a162.8672 162.8672 0 0 0 162.6624-162.6624V275.9168a162.816 162.816 0 0 0-162.6624-162.6624z m-89.8048 51.2V345.6a60.3136 60.3136 0 0 1-60.2112 60.2112h-163.84A60.3136 60.3136 0 0 1 366.08 345.6V164.4544z m201.2672 575.488a111.616 111.616 0 0 1-111.4624 111.4624H276.48a111.5648 111.5648 0 0 1-111.616-111.4624V275.9168A111.5648 111.5648 0 0 1 276.48 164.4544h38.4V345.6a111.5648 111.5648 0 0 0 111.4624 111.4112h163.84a111.5136 111.5136 0 0 0 111.5648-111.4112V164.4544h38.6048a111.5648 111.5648 0 0 1 111.4624 111.4624z" fill="#434A54" p-id="1620"></path><path d="M566.016 338.8928a25.6 25.6 0 0 0 25.6-25.6V243.3024a25.6 25.6 0 1 0-51.2 0v69.9904a25.6 25.6 0 0 0 25.6 25.6z" fill="#434A54" p-id="1621"></path></svg>
